Coordinates
version=1
nRows=14
nColumns=32
inDegrees=yes

Units are S.I. units (second, meters, Newtons, ...)
Angles are in degrees.

endheader
time	lower_torso_RX	lower_torso_RY	lower_torso_RZ	lower_torso_TX	lower_torso_TY	lower_torso_TZ	lumbar_pitch	lumbar_roll	lumbar_yaw	hip_flex_r	hip_add_r	hip_rot_r	knee_flex_r	tib_pat_r_r3	tib_pat_r_tx	tib_pat_r_ty	tib_pat_r_tz	ankle_flex_r	subt_angle_r	toe_angle_r	hip_flex_l	hip_add_l	hip_rot_l	knee_flex_l	tib_pat_l_r3	tib_pat_l_tx	tib_pat_l_ty	tib_pat_l_tz	ankle_flex_l	subt_angle_l	toe_angle_l
      3.60000000	     -3.38853891	      3.81549400	    -15.39681806	     -0.34790769	      0.68427887	     -0.19768927	      0.00000000	      0.00000000	      0.00000000	     22.77441088	      7.42634369	     21.43487989	     29.75990692	      5.83625990	      0.03074748	      0.00689605	      0.00073425	     15.85588544	     -4.39795622	      0.00000000	     27.01989921	     -0.38534072	     20.00886836	     64.66743399	     13.29291603	      0.02019788	      0.00066242	     -0.00343574	      4.64678792	     20.00000000	      0.00000000
      3.61000000	     -3.19227550	      3.90155507	    -15.24240055	     -0.34231149	      0.68438860	     -0.19794593	      0.00000000	      0.00000000	      0.00000000	     21.99195815	      7.26842680	     21.72791704	     29.66990706	      5.81357978	      0.03077044	      0.00688519	      0.00073425	     16.04528920	     -4.14534938	      0.00000000	     28.63299699	      0.08251459	     19.90549773	     65.42104746	     13.38012434	      0.02001216	      0.00068046	     -0.00343574	      5.40402908	     20.00000000	      0.00000000
      3.62000000	     -3.07827228	      3.67945325	    -15.44220188	     -0.33678344	      0.68413234	     -0.19787038	      0.00000000	      0.00000000	      0.00000000	     21.47848276	      7.15471272	     22.05156236	     29.34246728	      5.73019167	      0.03082981	      0.00687977	      0.00073425	     16.60552014	     -3.88585430	      0.00000000	     30.45606894	      0.68639167	     20.04596883	     66.01321113	     13.44729997	      0.01987054	      0.00070849	     -0.00343574	      6.67399161	     20.00000000	      0.00000000
      3.63000000	     -3.09957280	      3.34233719	    -15.15041988	     -0.33109651	      0.68462659	     -0.19731579	      0.00000000	      0.00000000	      0.00000000	     20.81007010	      7.27999129	     21.95648526	     29.60223369	      5.79660570	      0.03077894	      0.00689022	      0.00073425	     16.59807631	     -3.87717335	      0.00000000	     31.40442241	      0.88277387	     20.14443284	     65.61633397	     13.40270602	      0.01996780	      0.00069424	     -0.00343574	      6.77194329	     20.00000000	      0.00000000
      3.64000000	     -2.83335400	      3.38373530	    -14.82869066	     -0.32581779	      0.68411091	     -0.19790835	      0.00000000	      0.00000000	      0.00000000	     19.82947835	      6.97172313	     22.14542233	     29.49251192	      5.76845058	      0.03079941	      0.00688639	      0.00073425	     16.87259167	     -3.70768372	      0.00000000	     33.15195069	      1.65545728	     20.07262754	     66.63008181	     13.51624876	      0.01971699	      0.00072779	     -0.00343574	      7.72636252	     20.00000000	      0.00000000
      3.65000000	     -2.64719690	      3.48012124	    -14.89019140	     -0.32034055	      0.68369890	     -0.19823342	      0.00000000	      0.00000000	      0.00000000	     19.15986417	      6.74174975	     22.22918055	     29.17569380	      5.68769920	      0.03086236	      0.00687106	      0.00073425	     17.55448999	     -3.68947596	      0.00000000	     34.88020675	      2.08450725	     19.98918515	     66.63354147	     13.51662867	      0.01972150	      0.00072557	     -0.00343574	      8.99737128	     20.00000000	      0.00000000
      3.66000000	     -2.68895706	      3.13462953	    -14.53741301	     -0.31498284	      0.68375707	     -0.19801353	      0.00000000	      0.00000000	      0.00000000	     18.45036979	      6.84888219	     22.13570724	     29.45273853	      5.75835088	      0.03080856	      0.00688467	      0.00073425	     17.55059977	     -3.68229346	      0.00000000	     35.93525132	      2.26687178	     20.08406508	     66.12609009	     13.45998827	      0.01984419	      0.00071227	     -0.00343574	      9.10538241	     20.00000000	      0.00000000
      3.67000000	     -2.49049417	      3.15303237	    -14.84219888	     -0.30942543	      0.68282173	     -0.19863944	      0.00000000	      0.00000000	      0.00000000	     17.80490461	      6.43629774	     22.20525972	     28.68971839	      5.56265929	      0.03094803	      0.00684958	      0.00073425	     18.47141592	     -3.60871374	      0.00000000	     38.30559737	      2.19725233	     18.93432726	     66.24414787	     13.47321489	      0.01981004	      0.00071370	     -0.00343574	     10.78950541	     20.00000000	      0.00000000
      3.68000000	     -2.62124752	      2.88301773	    -15.13573264	     -0.30411087	      0.68249171	     -0.19851561	      0.00000000	      0.00000000	      0.00000000	     17.48083426	      6.54349144	     22.39547781	     28.40474779	      5.48867970	      0.03100885	      0.00684045	      0.00073425	     18.86807409	     -3.21048202	      0.00000000	     40.06803121	      1.54952549	     17.93196511	     65.14018549	     13.34774854	      0.02008396	      0.00067844	     -0.00343574	     11.57954885	     20.00000000	      0.00000000
      3.69000000	     -2.65183644	      3.08148315	    -14.83092637	     -0.29885065	      0.68214536	     -0.19904867	      0.00000000	      0.00000000	      0.00000000	     16.72901722	      6.63515097	     22.45319973	     28.62762997	      5.54646619	      0.03097033	      0.00684490	      0.00073425	     18.88873769	     -3.05886093	      0.00000000	     41.45499797	      1.50850649	     17.63260363	     64.33882594	     13.25453497	      0.02027822	      0.00065171	     -0.00343574	     11.81593492	     19.86702342	      0.00000000
      3.70000000	     -2.77788128	      2.47452103	    -15.40245601	     -0.29330238	      0.68170379	     -0.19883172	      0.00000000	      0.00000000	      0.00000000	     16.50043189	      6.50980793	     22.50457393	     27.81236000	      5.33372714	      0.03111880	      0.00681671	      0.00073425	     19.36979105	     -2.76952384	      0.00000000	     43.35452635	      0.61298708	     16.06558136	     62.67572844	     13.05465751	      0.02067477	      0.00059143	     -0.00343574	     12.61059805	     19.03354906	      0.00000000
      3.71000000	     -2.93739666	      2.22048111	    -15.74208652	     -0.28792674	      0.68113861	     -0.19879946	      0.00000000	      0.00000000	      0.00000000	     16.18050539	      6.58231804	     22.77227561	     27.43672513	      5.23453344	      0.03118949	      0.00680461	      0.00073425	     19.56904823	     -2.31689451	      0.00000000	     45.09847919	     -0.10088491	     14.90830860	     61.02302045	     12.84794830	      0.02107352	      0.00053488	     -0.00343574	     12.89730185	     18.37788995	      0.00000000
      3.72000000	     -3.07284161	      1.92221951	    -16.02499874	     -0.28248101	      0.68062520	     -0.19879097	      0.00000000	      0.00000000	      0.00000000	     15.82134640	      6.62970884	     23.06010037	     27.11122470	      5.14788862	      0.03124960	      0.00678840	      0.00073425	     19.74363502	     -1.87590877	      0.00000000	     46.58089391	     -0.62823481	     14.05217929	     59.11971924	     12.59955318	      0.02153088	      0.00046304	     -0.00343574	     12.92853252	     17.85775678	      0.00000000
      3.73000000	     -3.21237104	      1.64957196	    -16.32605144	     -0.27687449	      0.68011950	     -0.19882419	      0.00000000	      0.00000000	      0.00000000	     15.45777799	      6.65845766	     23.31236937	     26.75308205	      5.05199371	      0.03131826	      0.00677284	      0.00073425	     19.94988304	     -1.48192227	      0.00000000	     47.90465070	     -1.17912768	     13.21650836	     56.85090894	     12.28874071	      0.02208711	      0.00038106	     -0.00343574	     12.88816325	     17.26611068	      0.00000000
